<?xml version="1.0" encoding="UTF-8" standalone="no"?>
<!-- Created with Inkscape (http://www.inkscape.org/) -->

<svg
   xmlns:dc="http://purl.org/dc/elements/1.1/"
   xmlns:cc="http://creativecommons.org/ns#"
   xmlns:rdf="http://www.w3.org/1999/02/22-rdf-syntax-ns#"
   xmlns:svg="http://www.w3.org/2000/svg"
   xmlns="http://www.w3.org/2000/svg"
   xmlns:sodipodi="http://sodipodi.sourceforge.net/DTD/sodipodi-0.dtd"
   xmlns:inkscape="http://www.inkscape.org/namespaces/inkscape"
   width="67.73333mm"
   height="61.46801mm"
   viewBox="0 0 239.99999 217.80003"
   id="svg2"
   version="1.1"
   inkscape:version="0.91 r13725">
  <defs
     id="defs4" />
  <sodipodi:namedview
     id="base"
     pagecolor="#ffffff"
     bordercolor="#666666"
     borderopacity="1.0"
     inkscape:pageopacity="0.0"
     inkscape:pageshadow="2"
     inkscape:zoom="2.8"
     inkscape:cx="137.03811"
     inkscape:cy="100.71662"
     inkscape:document-units="px"
     inkscape:current-layer="layer1"
     showgrid="false"
     fit-margin-top="0"
     fit-margin-left="0"
     fit-margin-right="0"
     fit-margin-bottom="0"
     inkscape:window-width="1857"
     inkscape:window-height="1057"
     inkscape:window-x="-8"
     inkscape:window-y="-8"
     inkscape:window-maximized="1" />
  <metadata
     id="metadata7">
    <rdf:RDF>
      <cc:Work
         rdf:about="">
        <dc:format>image/svg+xml</dc:format>
        <dc:type
           rdf:resource="http://purl.org/dc/dcmitype/StillImage" />
        <dc:title></dc:title>
      </cc:Work>
    </rdf:RDF>
  </metadata>
  <g
     inkscape:label="Layer 1"
     inkscape:groupmode="layer"
     id="layer1"
     transform="translate(-118.92856,-411.3193)">
    <g
       id="g4147"
       transform="translate(-100.35715,-15)">
      <path
         style="fill:#fdfdfc"
         d="m 219.28571,535.21934 0,-108.9 120,0 120,0 0,108.9 0,108.9 -120,0 -120,0 0,-108.9 z"
         id="path4163"
         inkscape:connector-curvature="0" />
      <path
         style="fill:#eda982"
         d="m 334.03571,643.93416 c -0.33,-0.0569 -2.76,-0.23373 -5.4,-0.39292 -8.19246,-0.49402 -20.32774,-2.89011 -29.85,-5.89382 -18.54077,-5.84852 -37.62681,-18.49507 -53.35291,-35.35204 -12.74446,-13.66091 -22.00234,-29.78815 -24.90012,-43.37604 -1.74905,-8.20141 -1.57941,-21.2009 0.41149,-31.53326 6.03637,-31.32752 24.15183,-53.16196 52.19154,-62.90609 8.87101,-3.08278 18.52571,-4.68801 28.05,-4.66369 8.96198,0.0229 14.74122,1.16516 22.00221,4.34881 1.12871,0.4949 2.11484,0.83718 2.19138,0.76064 0.0765,-0.0765 -1.46119,-1.11026 -3.4172,-2.29713 -6.6526,-4.03671 -8.83228,-6.03476 -6.10812,-5.59915 1.98636,0.31763 6.55039,1.92469 9.43233,3.32126 1.51217,0.73279 4.7744,2.64812 7.2494,4.2563 5.02147,3.2628 9.92271,5.96097 10.15256,5.58907 0.083,-0.13421 0.24277,-1.99513 0.35516,-4.13539 0.22876,-4.35611 -0.2256,-10.40509 -0.9034,-12.02731 -0.23789,-0.56934 -1.53424,-2.36589 -2.88079,-3.99233 -2.54667,-3.07602 -6.257,-8.10605 -6.26749,-8.49673 -0.0147,-0.54595 0.97267,-0.0231 5.94867,3.15 8.40292,5.35843 9.96831,7.1566 11.16481,12.825 0.29605,1.4025 0.56329,2.6175 0.59387,2.7 0.26569,0.71667 0.55519,-3.27166 0.56932,-7.84321 0.0227,-7.35066 -0.73224,-14.55981 -2.36744,-22.60679 -0.33529,-1.65 -0.61089,-3.10125 -0.61245,-3.225 -0.002,-0.12375 1.54058,-0.225 3.42696,-0.225 3.29269,0 3.43844,0.027 3.6462,0.675 0.35189,1.09752 0.23909,25.74605 -0.14243,31.125 -0.1931,2.7225 -0.56004,6.61586 -0.81542,8.65191 -0.25537,2.03605 -0.38699,3.77923 -0.29249,3.87373 0.48586,0.48586 4.40506,-2.1171 9.54415,-6.33882 4.50497,-3.70078 7.12164,-5.45058 10.01531,-6.69738 2.79077,-1.20246 4.59812,-2.39139 8.9649,-5.89733 4.48189,-3.59837 5.28269,-3.81593 3.38089,-0.91854 -1.48257,2.25869 -5.196,5.81128 -8.03089,7.68304 -2.14436,1.41584 -4.96928,3.84339 -4.47251,3.84339 0.0799,0 1.28758,-0.39682 2.68385,-0.88181 7.82845,-2.71923 18.55425,-3.18002 27.73866,-1.19167 22.94113,4.96658 43.25782,25.01554 51.27701,50.60128 3.11384,9.9349 4.27614,19.58185 3.98467,33.0722 -0.20749,9.60357 -0.54324,13.36162 -1.71062,19.14711 -7.04319,34.9056 -31.16293,61.22857 -67.65376,73.83364 -14.8326,5.12364 -28.82527,7.27047 -46.7973,7.17988 -4.62,-0.0233 -8.67,-0.0889 -9,-0.14581 z"
         id="path4161"
         inkscape:connector-curvature="0" />
      <path
         style="fill:#e87b5d"
         d="m 335.23571,643.92154 c -16.53447,-1.33567 -28.4988,-3.72405 -40.80367,-8.14544 -23.6002,-8.48003 -49.37583,-29.95764 -63.38686,-52.81726 -4.27364,-6.97263 -8.08908,-15.75402 -9.83292,-22.63087 -2.41242,-9.51338 -2.47872,-17.52259 -0.25504,-30.80863 4.1991,-25.08879 16.56812,-44.77532 35.74757,-56.89582 3.50927,-2.2177 10.81938,-5.76072 15.08092,-7.30934 6.12118,-2.22441 14.30432,-4.08998 21,-4.78753 3.79405,-0.39526 12.68686,-0.38516 16.05,0.0182 5.65093,0.6778 11.23421,2.36865 16.45574,4.98349 1.13066,0.56621 2.11395,0.97127 2.18508,0.90014 0.26626,-0.26626 -1.98056,-1.95293 -5.08989,-3.82095 -3.73944,-2.24658 -7.10093,-4.65456 -7.10093,-5.0867 0,-0.4759 0.58215,-0.3708 4.07853,0.73634 4.11792,1.30395 7.84128,3.19368 13.3141,6.75733 5.74231,3.73913 9.72784,5.83636 10.13361,5.33241 0.82918,-1.02982 0.67063,-12.49689 -0.21844,-15.79865 -0.1996,-0.74125 -1.37174,-2.47265 -3.18496,-4.70461 -3.57354,-4.39878 -5.60452,-7.2293 -5.47216,-7.62638 0.13854,-0.41562 8.53384,4.85712 11.00404,6.91118 3.36056,2.79442 4.48605,4.97746 5.14403,9.97752 0.61435,4.66854 1.01666,4.09778 1.54346,-2.18971 0.5386,-6.42849 -0.28376,-16.40793 -2.17526,-26.39696 -0.32807,-1.7325 -0.66644,-3.38625 -0.75193,-3.675 -0.14146,-0.47774 0.14343,-0.525 3.16476,-0.525 l 3.32022,0 -6e-4,12.975 c -6e-4,13.14419 -0.2717,19.91174 -1.06289,26.52395 -0.56706,4.74004 -0.56078,5.20105 0.071,5.20105 0.82812,0 4.2322,-2.19113 7.44245,-4.79053 5.23919,-4.24228 8.72219,-6.79486 10.23336,-7.49972 4.73371,-2.20794 6.06605,-3.01948 9.86701,-6.01004 2.30663,-1.81484 4.30506,-3.29971 4.44095,-3.29971 0.13589,0 -0.0653,0.56191 -0.44713,1.24868 -1.04304,1.87617 -4.90044,5.61824 -7.75891,7.52693 -2.60364,1.73854 -5.38528,4.17232 -5.38528,4.71182 0,0.1671 0.70875,0.0148 1.575,-0.33843 8.30157,-3.38519 19.54421,-4.158 29.475,-2.0261 18.92265,4.06223 36.33219,18.39381 46.20652,38.03731 8.38863,16.68793 11.2791,37.44684 8.21372,58.98979 -2.42738,17.05924 -9.14613,32.81198 -19.54683,45.82941 -3.24716,4.06411 -10.66138,11.46499 -14.77341,14.74682 -18.59342,14.83951 -42.45394,23.50919 -70.63497,25.66509 -3.66061,0.28004 -14.90688,0.34984 -17.86503,0.11088 z m 24.30926,-59.95386 c 6.06943,-2.25411 10.65259,-5.25705 15.78043,-10.33952 6.3618,-6.30553 10.07486,-13.28628 11.97245,-22.50882 0.8231,-4.00042 0.88005,-10.74249 0.12816,-15.17379 -2.25892,-13.31316 -11.26367,-25.43075 -23.3903,-31.47608 -3.67278,-1.83095 -6.75414,-2.97617 -7.07219,-2.62847 -0.49039,0.5361 -2.284,15.21051 -2.96136,24.22834 -0.17351,2.31 -0.38368,4.9425 -0.46703,5.85 -0.0834,0.9075 -0.23412,6.375 -0.33504,12.15 -0.18782,10.74889 0.14037,22.67528 0.94939,34.5 0.23706,3.465 0.4322,6.41891 0.43363,6.56425 0.004,0.43266 1.78283,0.0147 4.96186,-1.16591 z m -28.05338,-0.0733 c 0.003,-0.61875 0.13612,-4.58065 0.29529,-8.80422 0.40766,-10.81667 0.42913,-45.51796 0.0335,-54.12078 -0.58759,-12.77648 -0.99339,-18.89336 -1.27315,-19.19101 -0.62526,-0.66522 -8.08863,2.61099 -12.00216,5.26861 -7.8826,5.35298 -13.71473,12.67255 -16.71048,20.9724 -1.52822,4.234 -2.05122,6.29919 -2.43117,9.6 -0.19942,1.7325 -0.4043,3.37462 -0.45529,3.64915 -0.18064,0.97251 0.44099,8.23358 0.89462,10.44993 2.99668,14.64097 13.2878,26.61976 27.72685,32.27385 3.46325,1.35615 3.91446,1.34489 3.922,-0.0979 z"
         id="path4159"
         inkscape:connector-curvature="0" />
      <path
         style="fill:#ed8931"
         d="m 336.88571,643.92555 c -1.35432,-0.0892 -3.44549,-0.30919 -11.25,-1.18325 -11.08287,-1.2412 -24.01847,-4.36348 -33.45,-8.07384 -18.33062,-7.21128 -38.56484,-22.57138 -52.45684,-39.8208 -9.70204,-12.04682 -16.35187,-25.18896 -18.79628,-37.14733 -0.41945,-2.05204 -0.92785,-4.47349 -1.12976,-5.38099 -0.47644,-2.14132 -0.47782,-11.33198 -0.002,-13.5 0.19916,-0.9075 0.64814,-3.78472 0.99775,-6.39381 1.73764,-12.96782 6.16289,-25.7369 12.43128,-35.87049 13.08097,-21.14697 36.044,-34.24166 63.18649,-36.03215 10.94359,-0.72191 20.76527,1.08159 28.72827,5.27519 1.37987,0.72669 2.65602,1.32126 2.83588,1.32126 0.81335,0 -2.19903,-2.45397 -5.34765,-4.35634 -3.99552,-2.41406 -7.3471,-4.8054 -7.3471,-5.24213 0,-0.4759 0.58215,-0.3708 4.07853,0.73634 4.11792,1.30395 7.84128,3.19368 13.3141,6.75733 5.74231,3.73913 9.72784,5.83636 10.13361,5.33241 0.82918,-1.02982 0.67063,-12.49689 -0.21844,-15.79865 -0.1996,-0.74125 -1.37174,-2.47265 -3.18496,-4.70461 -3.57354,-4.39878 -5.60452,-7.2293 -5.47216,-7.62638 0.13854,-0.41562 8.53384,4.85712 11.00404,6.91118 3.36056,2.79442 4.48605,4.97746 5.14403,9.97752 0.61435,4.66854 1.01666,4.09778 1.54346,-2.18971 0.5386,-6.42849 -0.28376,-16.40793 -2.17526,-26.39696 -0.32807,-1.7325 -0.66644,-3.38625 -0.75193,-3.675 -0.14146,-0.47774 0.14343,-0.525 3.16476,-0.525 l 3.32022,0 -6e-4,12.975 c -6e-4,13.14419 -0.2717,19.91174 -1.06289,26.52395 -0.56706,4.74004 -0.56078,5.20105 0.071,5.20105 0.82812,0 4.2322,-2.19113 7.44245,-4.79053 5.23919,-4.24228 8.72219,-6.79486 10.23336,-7.49972 4.73371,-2.20794 6.06605,-3.01948 9.86701,-6.01004 2.30663,-1.81484 4.30506,-3.29971 4.44095,-3.29971 0.13589,0 -0.0653,0.56191 -0.44713,1.24868 -1.01477,1.82532 -4.8587,5.58536 -7.44594,7.28344 -3.12591,2.05163 -6.34451,5.02162 -5.91136,5.45477 0.0815,0.0815 0.96417,-0.19539 1.9616,-0.61521 9.81847,-4.13254 23.59621,-4.23324 35.55732,-0.25989 12.98417,4.3132 25.39176,14.04311 34.16034,26.78821 7.54731,10.96999 12.0427,22.97635 13.87215,37.05 0.25738,1.98 0.6119,4.40072 0.78783,5.37938 0.49308,2.74303 0.68193,12.22749 0.31402,15.77062 -1.28983,12.42138 -2.7374,19.84025 -5.39164,27.6325 -10.91119,32.03275 -37.37651,54.82326 -74.70154,64.32893 -12.96663,3.30224 -30.79152,5.18651 -42.04697,4.44478 z m 18.6,-6.40931 c 3.21532,-0.27517 4.603,-0.44675 10.05,-1.24262 3.41989,-0.49968 14.04531,-2.90322 17.18728,-3.88787 4.83622,-1.5156 11.10212,-3.84563 14.01272,-5.21076 6.95925,-3.264 10.34239,-5.09654 15,-8.125 10.93444,-7.10978 19.44772,-15.40106 26.38502,-25.69696 1.08074,-1.60396 1.96498,-3.01083 1.96498,-3.12637 0,-0.11554 0.19085,-0.42321 0.42411,-0.6837 0.6108,-0.68209 4.25629,-7.85044 5.42812,-10.67362 2.37705,-5.72679 4.51216,-13.15826 5.68869,-19.8 1.74921,-9.87467 1.80891,-24.22501 0.14226,-34.2 -3.017,-18.057 -10.00566,-31.80127 -22.07099,-43.40602 -7.18804,-6.91365 -17.29848,-12.37455 -27.51528,-14.8617 -3.14332,-0.7652 -3.76663,-0.8149 -10.24691,-0.81712 -6.57091,-0.002 -7.05333,0.0373 -10.11484,0.82906 -5.46513,1.4134 -8.08493,2.67557 -15.08516,7.26777 -4.03061,2.64411 -8.58136,4.95406 -11.43234,5.80304 -3.23758,0.96409 -9.79661,0.92076 -13.31766,-0.088 -1.4025,-0.40181 -3.39656,-0.94486 -4.43124,-1.20679 -2.41749,-0.61199 -6.4752,-2.44348 -10.52075,-4.74865 -8.53878,-4.86544 -13.5425,-6.55435 -21.22548,-7.16426 -7.85416,-0.6235 -18.20356,0.49821 -26.42196,2.86371 -20.73796,5.96901 -36.57913,19.32399 -45.35906,38.24017 -2.26131,4.87195 -3.33446,7.82444 -5.13907,14.13878 -2.40532,8.4162 -3.94911,23.87174 -3.02712,30.3058 0.46544,3.24809 1.64357,8.42151 2.54818,11.18964 2.80679,8.58884 8.43569,18.56478 15.43476,27.35456 5.74246,7.21168 13.69993,15.05217 21.79174,21.47141 11.14721,8.84308 22.33494,15.09763 33.7603,18.87385 10.91533,3.60765 21.87792,5.80755 32.8397,6.59006 2.475,0.17668 5.175,0.37303 6,0.43633 2.31679,0.17775 13.39812,-0.0951 17.25,-0.42475 z m -28.5,-16.69224 c -5.89879,-0.63179 -16.5335,-3.21062 -23.14115,-5.61153 -11.30766,-4.10868 -23.38385,-12.06762 -33.97371,-22.39073 -13.79668,-13.44915 -21.87014,-27.37599 -23.47664,-40.49754 -0.49014,-4.00337 -0.49063,-4.5484 -0.009,-9.8464 0.75567,-8.31112 1.8433,-13.37697 4.4568,-20.75846 2.32723,-6.57297 5.34848,-11.82491 9.97358,-17.33744 8.59611,-10.24545 19.99689,-16.67972 34.22004,-19.31279 3.02591,-0.56018 4.70035,-0.66911 10.5,-0.68311 6.22274,-0.015 7.16502,0.0504 9.6,0.66648 2.77578,0.70232 6.74038,2.49205 11.88117,5.36349 l 2.92979,1.63647 0.18899,1.55845 c 0.10394,0.85715 0.21397,2.8358 0.24452,4.397 l 0.0555,2.83855 -2.55,0.92461 c -6.25729,2.26883 -11.63346,5.72485 -16.52287,10.62157 -2.42854,2.43218 -5.97713,6.83933 -5.97713,7.42326 0,0.14693 -0.44154,0.93907 -0.98121,1.7603 -0.53966,0.82124 -1.36484,2.30316 -1.83373,3.29316 -0.96054,2.02808 -3.15402,8.52702 -3.34138,9.9 -0.0676,0.495 -0.28305,2.09128 -0.4789,3.54729 -0.97498,7.24844 0.79556,17.22608 4.31817,24.33442 0.48562,0.97994 1.12442,2.12744 1.41956,2.55 0.29515,0.42256 1.18104,1.78079 1.96864,3.01829 1.97462,3.10256 8.03808,9.06758 11.60318,11.4148 3.12941,2.06036 7.81461,4.39934 10.72567,5.35455 1.0725,0.35191 2.10986,0.7415 2.30524,0.86574 0.26949,0.17137 0.29163,1.92625 0.0917,7.2704 -0.14495,3.87448 -0.41803,11.22951 -0.60683,16.34451 -0.18881,5.115 -0.43784,9.7725 -0.5534,10.35 -0.22655,1.13212 -0.62278,1.26321 -3.03669,1.00466 z m 31.37092,-0.37082 c -0.24243,-0.39224 -0.67126,-3.78817 -1.51964,-12.03384 -0.41592,-4.0425 -0.88616,-8.3625 -1.04498,-9.6 -0.54919,-4.27917 -1.01805,-12.3091 -0.73345,-12.56124 0.15243,-0.13505 1.15465,-0.55744 2.22715,-0.93864 5.26651,-1.87191 8.77876,-3.58775 12.04187,-5.88281 1.26054,-0.88657 2.36936,-1.81388 2.46407,-2.06067 0.0947,-0.2468 0.82432,-0.84999 1.62137,-1.34042 2.00358,-1.23281 6.33289,-6.12363 7.55915,-8.53954 0.55232,-1.08816 1.18546,-2.12888 1.40697,-2.31272 1.31576,-1.09199 3.26114,-5.76746 4.80394,-11.54565 l 1.11295,-4.16831 -0.0141,-6.45 c -0.0125,-5.69921 -0.0898,-6.7119 -0.66468,-8.7 -0.35782,-1.2375 -0.79284,-2.8575 -0.96672,-3.6 -1.32433,-5.65533 -6.13341,-13.61757 -11.26416,-18.64973 -4.57744,-4.48946 -11.05019,-8.60527 -16.15066,-10.26965 -2.4553,-0.80121 -2.36849,-0.58521 -1.68476,-4.19206 0.33367,-1.76023 0.68537,-3.32774 0.78155,-3.48336 0.0962,-0.15562 1.48624,-1.04735 3.08904,-1.98162 1.60279,-0.93426 4.07502,-2.42347 5.49383,-3.30934 7.45198,-4.65281 13.38958,-6.06774 21.42034,-5.10447 4.16347,0.4994 9.69291,2.19055 13.5,4.12892 16.8322,8.57004 27.07375,24.90928 29.5924,47.21131 0.3927,3.4773 0.39352,14.21191 0.002,17.7 -1.22643,10.90825 -4.62129,21.45386 -9.54909,29.66277 -11.78908,19.6387 -33.00133,33.11163 -59.30852,37.66974 -4.10152,0.71065 -3.99847,0.70206 -4.21523,0.35133 z"
         id="path4157"
         inkscape:connector-curvature="0" />
      <path
         style="fill:#63953e"
         d="m 337.03571,643.92459 c -1.48145,-0.0855 -3.17813,-0.26149 -11.4,-1.18229 -11.08287,-1.2412 -24.01847,-4.36348 -33.45,-8.07384 -18.33062,-7.21128 -38.56484,-22.57138 -52.45684,-39.8208 -9.70204,-12.04682 -16.35187,-25.18896 -18.79628,-37.14733 -0.41945,-2.05204 -0.92785,-4.47349 -1.12976,-5.38099 -0.47427,-2.13156 -0.47424,-11.3264 4e-5,-13.5 0.19801,-0.9075 0.64606,-3.78472 0.99567,-6.39381 1.73764,-12.96782 6.16289,-25.7369 12.43128,-35.87049 13.08097,-21.14697 36.044,-34.24166 63.18649,-36.03215 10.94359,-0.72191 20.76527,1.08159 28.72827,5.27519 1.37987,0.72669 2.65602,1.32126 2.83588,1.32126 0.81335,0 -2.19903,-2.45397 -5.34765,-4.35634 -3.99552,-2.41406 -7.3471,-4.8054 -7.3471,-5.24213 0,-0.4759 0.58215,-0.3708 4.07853,0.73634 4.11792,1.30395 7.84128,3.19368 13.3141,6.75733 5.74231,3.73913 9.72784,5.83636 10.13361,5.33241 0.82918,-1.02982 0.67063,-12.49689 -0.21844,-15.79865 -0.1996,-0.74125 -1.37174,-2.47265 -3.18496,-4.70461 -3.57354,-4.39878 -5.60452,-7.2293 -5.47216,-7.62638 0.13854,-0.41562 8.53384,4.85712 11.00404,6.91118 3.36056,2.79442 4.48605,4.97746 5.14403,9.97752 0.61435,4.66854 1.01666,4.09778 1.54346,-2.18971 0.5386,-6.42849 -0.28376,-16.40793 -2.17526,-26.39696 -0.32807,-1.7325 -0.66644,-3.38625 -0.75193,-3.675 -0.14146,-0.47774 0.14343,-0.525 3.16476,-0.525 l 3.32022,0 -6e-4,12.975 c -6e-4,13.14419 -0.2717,19.91174 -1.06289,26.52395 -0.56706,4.74004 -0.56078,5.20105 0.071,5.20105 0.82812,0 4.2322,-2.19113 7.44245,-4.79053 5.23919,-4.24228 8.72219,-6.79486 10.23336,-7.49972 4.73371,-2.20794 6.06605,-3.01948 9.86701,-6.01004 2.30663,-1.81484 4.30506,-3.29971 4.44095,-3.29971 0.13589,0 -0.0653,0.56191 -0.44713,1.24868 -1.01477,1.82532 -4.8587,5.58536 -7.44594,7.28344 -3.12591,2.05163 -6.34451,5.02162 -5.91136,5.45477 0.0815,0.0815 0.96417,-0.19539 1.9616,-0.61521 9.81847,-4.13254 23.59621,-4.23324 35.55732,-0.25989 12.98417,4.3132 25.39176,14.04311 34.16034,26.78821 7.54731,10.96999 12.0427,22.97635 13.87215,37.05 0.25738,1.98 0.60588,4.37158 0.77445,5.31463 0.48838,2.73221 0.68231,12.05261 0.32637,15.68537 -1.17296,11.97139 -2.71889,19.93895 -5.39061,27.7825 -10.91119,32.03275 -37.37651,54.82326 -74.70154,64.32893 -12.96345,3.30143 -30.13586,5.12284 -41.89697,4.44382 z m 13.84172,-6.11228 c 36.45895,-2.08906 67.09542,-16.94414 84.98527,-41.20783 9.49098,-12.87244 15.25975,-28.48462 16.80697,-45.48514 0.40174,-4.41424 0.40431,-14.74227 0.005,-19.2 -1.51458,-16.89857 -7.16247,-31.89434 -16.32701,-43.35 -2.10231,-2.62789 -7.18744,-7.7807 -9.76172,-9.89166 -5.32236,-4.36442 -13.00326,-8.58752 -19.35,-10.63898 -6.32144,-2.04327 -7.86912,-2.27004 -15.45,-2.2638 -6.30437,0.005 -6.95796,0.0582 -9.9,0.80221 -5.3382,1.35003 -8.88421,3.06067 -15.46915,7.4625 -3.7112,2.48082 -8.27817,4.80053 -11.11319,5.64476 -1.74727,0.5203 -2.92354,0.63497 -6.51358,0.63497 -3.84106,0 -4.66928,-0.092 -6.71765,-0.74617 -1.28504,-0.41039 -2.56214,-0.74789 -2.83802,-0.75 -1.83229,-0.014 -7.59893,-2.62226 -15.10541,-6.83223 -7.83041,-4.39165 -15.62211,-6.0997 -25.793,-5.65418 -11.56409,0.50655 -21.84773,3.08608 -31.8,7.97667 -7.85107,3.85804 -13.42117,7.88246 -19.37241,13.99664 -13.17185,13.53248 -20.84773,33.44847 -21.49034,55.75927 -0.17483,6.06991 0.17168,9.56606 1.45695,14.7 5.77297,23.05985 27.26181,48.35608 54.54016,64.20358 15.13156,8.79076 33.75836,13.72567 56.41564,14.94652 3.93383,0.21197 7.78576,0.17971 12.79172,-0.10713 z m -23.74172,-16.99976 c -9.57705,-1.24386 -21.48046,-4.47764 -28.53599,-7.75234 -19.98601,-9.27614 -40.15012,-28.7822 -48.05928,-46.49087 -3.64464,-8.16037 -4.97119,-15.33089 -4.27349,-23.1 0.9863,-10.98299 3.15205,-19.50304 6.94877,-27.3365 7.24327,-14.94441 20.10294,-25.49109 36.33268,-29.79772 5.22241,-1.38579 8.58998,-1.84639 14.78731,-2.02253 9.12012,-0.25921 12.02327,0.43489 20.2849,4.84983 5.98498,3.19831 5.46954,2.47431 5.82627,8.1837 0.20584,3.29435 0.19182,3.41554 -0.41351,3.57383 -0.34461,0.0901 -2.01844,0.7311 -3.71961,1.42439 -3.93315,1.60292 -8.0547,4.03953 -11.41567,6.74881 -1.4507,1.16941 -2.67944,2.12619 -2.73054,2.12619 -0.0511,0 -0.17561,-1.07242 -0.27669,-2.38315 -0.23445,-3.04039 -1.20087,-6.82927 -2.2945,-8.99575 -1.56269,-3.09568 -5.25731,-5.71189 -8.07523,-5.71817 -1.11635,-0.002 -1.46432,0.15585 -2.30767,1.05006 -0.5462,0.57914 -1.42241,1.92506 -1.94714,2.99092 -0.83215,1.69034 -0.93728,2.16958 -0.82289,3.75104 0.22042,3.04734 1.40089,4.01963 7.69422,6.33737 4.10098,1.51032 7.13664,3.55477 6.64427,4.47476 -0.16469,0.30773 -0.43491,0.64323 -0.60049,0.74556 -0.40938,0.25301 -3.29815,3.89979 -4.33489,5.47236 -0.93079,1.41186 -1.33675,1.58188 -1.57763,0.66075 -0.30291,-1.15831 -2.15741,-4.78069 -3.33185,-6.50806 -2.74869,-4.0428 -5.69926,-5.77769 -9.82624,-5.77769 -1.97232,0 -2.34117,0.0888 -2.96646,0.71407 -0.96546,0.96547 -1.65865,3.45632 -1.65865,5.9601 0,2.14888 0.2405,2.89638 1.31249,4.07933 1.23129,1.35875 2.17162,1.60521 7.21668,1.89148 3.44286,0.19536 5.35584,0.44908 6.69257,0.88766 1.02946,0.33776 1.93916,0.7232 2.02157,0.85653 0.0824,0.13334 -0.37738,1.37157 -1.02174,2.75163 -0.64436,1.38006 -1.43495,3.29458 -1.75685,4.25449 -0.79548,2.37203 -1.05504,2.56481 -1.80954,1.34398 -0.92491,-1.49653 -4.74526,-5.0876 -6.88052,-6.46759 -1.03144,-0.6666 -2.5652,-1.37749 -3.40836,-1.57977 -2.19996,-0.52776 -5.29921,-0.23936 -6.89649,0.64175 -1.8352,1.01235 -2.13699,1.72806 -1.94136,4.60398 0.19589,2.87945 1.24824,5.31375 2.67126,6.17914 1.7882,1.08747 3.05299,1.04037 8.44045,-0.3143 4.30225,-1.08181 5.25061,-1.22764 6.80791,-1.0469 1.7661,0.20498 1.80497,0.22893 1.62657,1.00221 -0.53262,2.30864 -0.58239,2.63423 -0.92645,6.06027 -0.23049,2.29508 -0.52203,2.53068 -1.64819,1.33194 -0.38753,-0.4125 -0.87059,-0.75 -1.07348,-0.75 -0.20289,0 -1.49561,-0.53716 -2.87271,-1.19368 -5.07857,-2.4212 -8.51529,-2.69533 -12.03956,-0.96033 -3.46186,1.70427 -4.15087,3.21668 -2.90517,6.37705 1.37047,3.47691 3.46158,5.38033 5.90397,5.37403 1.41649,-0.004 3.73273,-1.06666 6.63761,-3.04626 2.78932,-1.90085 5.02866,-2.93906 6.53626,-3.03037 l 1.16308,-0.0704 0.20351,2.7 c 0.11192,1.485 0.37224,3.74468 0.57848,5.02151 0.20624,1.27684 0.30414,2.39236 0.21756,2.47894 -0.0866,0.0866 -0.65087,-0.0487 -1.25397,-0.30074 -3.6086,-1.50777 -10.24827,-1.9003 -13.15607,-0.77777 -3.12436,1.20612 -6.25137,4.74467 -5.79604,6.55883 0.53683,2.13891 3.82731,5.45909 6.01818,6.07249 2.65604,0.74365 4.31601,-0.34954 9.24867,-6.09079 1.64392,-1.91341 4.41012,-4.11247 5.17307,-4.11247 0.18777,0 0.77429,1.24875 1.30339,2.775 0.52911,1.52625 1.62603,4.04316 2.43761,5.59313 0.81159,1.54998 1.47561,2.846 1.47561,2.88006 0,0.0341 -1.45125,0.14239 -3.225,0.24074 -3.49077,0.19354 -7.13242,1.00634 -9.33271,2.083 -2.95253,1.44476 -5.44229,4.99121 -5.44229,7.75206 0,1.26584 0.1229,1.51723 1.2314,2.51869 2.49743,2.25627 5.87489,3.33136 7.97407,2.53823 1.92824,-0.72854 2.85804,-2.09124 5.05719,-7.41178 1.26635,-3.06375 3.44958,-6.36913 4.20686,-6.36913 0.21811,0 1.06463,0.8873 1.88115,1.97179 0.81652,1.08448 2.60934,3.13192 3.98405,4.54987 l 2.49945,2.57808 -1.94208,0.65604 c -3.80147,1.28413 -7.71294,3.63769 -9.69889,5.8359 -1.51969,1.68213 -2.3296,3.6367 -2.51737,6.07526 -0.20488,2.66086 0.20495,3.61693 1.88995,4.40898 4.75796,2.2365 9.15082,1.20422 10.31134,-2.42307 0.19307,-0.60343 0.52981,-3.10093 0.74832,-5.55 0.27416,-3.07283 0.60123,-4.98569 1.05534,-6.17215 0.36194,-0.94561 0.75389,-1.77852 0.87102,-1.85091 0.11712,-0.0724 1.49214,0.74882 3.05558,1.8249 3.29939,2.27091 7.53519,4.43176 11.39098,5.81102 l 2.71496,0.97116 -0.15646,3.03157 c -0.0861,1.66736 -0.30099,6.94656 -0.47765,11.73156 -0.51367,13.91338 -0.80267,19.58345 -1.01573,19.92818 -0.19534,0.31607 -0.9268,0.34708 -2.71348,0.11503 z m 31.19882,-0.39511 c -0.42509,-0.68782 -3.16213,-27.22081 -3.24435,-31.45089 l -0.0545,-2.8028 3.26921,-1.1555 c 1.79807,-0.63553 4.46397,-1.76617 5.92423,-2.51254 2.6701,-1.36475 6.9529,-4.10414 7.30359,-4.67156 0.4211,-0.68136 1.12218,-0.22522 1.72171,1.12019 0.47143,1.05792 0.7346,2.62284 1.02163,6.075 0.21677,2.60713 0.59885,5.20639 0.86968,5.91647 0.58917,1.54467 1.84954,2.65528 3.52549,3.10656 2.35211,0.63336 6.63081,-0.41163 7.91,-1.93187 0.71634,-0.85131 0.7641,-1.08863 0.64015,-3.18056 -0.28139,-4.74937 -2.68437,-7.67651 -8.857,-10.78897 -1.33938,-0.67537 -2.85002,-1.3109 -3.35697,-1.41229 -0.50695,-0.10138 -0.92172,-0.31273 -0.92172,-0.46964 0,-0.15692 1.15418,-1.53552 2.56485,-3.06356 1.41066,-1.52803 3.03425,-3.47527 3.60796,-4.32719 0.57372,-0.85192 1.21945,-1.54895 1.43495,-1.54895 0.48799,0 2.01008,1.86853 2.81526,3.45605 0.33306,0.65667 1.17451,2.56845 1.86989,4.24838 1.99506,4.81979 3.78695,6.39919 6.79273,5.9872 1.66259,-0.22788 3.99439,-1.40412 5.52513,-2.78705 1.06138,-0.95889 1.18891,-1.22384 1.1863,-2.46449 -0.006,-2.72583 -2.48137,-6.35261 -5.32731,-7.8045 -1.8997,-0.96915 -5.68531,-1.84318 -8.84476,-2.04208 -1.63809,-0.10313 -2.925,-0.31683 -2.925,-0.48572 0,-0.16587 0.6622,-1.66423 1.47157,-3.32969 0.80936,-1.66545 1.78093,-4.00685 2.15904,-5.2031 0.39752,-1.25762 0.8549,-2.175 1.0844,-2.175 1.14214,0 3.23873,1.89961 7.24338,6.5628 0.88462,1.03009 2.12975,2.2179 2.76696,2.63959 1.48853,0.98506 3.53312,1.05291 5.23813,0.17384 1.51294,-0.78005 3.53466,-2.94469 4.38504,-4.69502 0.58332,-1.20065 0.60603,-1.42609 0.23476,-2.33023 -0.59908,-1.45895 -2.90126,-3.79931 -4.56828,-4.64405 -2.25051,-1.14042 -4.30792,-1.40376 -7.92489,-1.01433 -1.72297,0.18551 -3.96449,0.59617 -4.98115,0.91259 -1.01665,0.31642 -1.93749,0.47845 -2.04631,0.36006 -0.10882,-0.11839 -0.0171,-1.29525 0.20386,-2.61525 0.22093,-1.32 0.41092,-3.345 0.42219,-4.5 0.0113,-1.155 0.14459,-2.29619 0.29628,-2.53597 0.46051,-0.72797 3.37712,0.39957 6.76502,2.61532 5.41745,3.54311 7.21417,4.0347 9.61153,2.62976 1.40596,-0.82396 2.82273,-2.83146 3.56016,-5.0446 0.70073,-2.103 0.61112,-3.04237 -0.40011,-4.1941 -2.2903,-2.6085 -6.85988,-3.592 -10.97393,-2.36189 -2.19312,0.65576 -6.2513,2.6075 -7.55672,3.63434 -0.91741,0.72164 -1.29093,0.55635 -1.29093,-0.57127 0,-0.74946 -0.54159,-4.19282 -1.07284,-6.82096 l -0.19191,-0.94937 1.72276,-0.21524 c 1.39932,-0.17483 2.32066,-0.0588 4.90738,0.61784 7.46951,1.95402 8.57895,1.99128 10.44731,0.35086 1.41217,-1.23989 2.18238,-3.02968 2.39496,-5.56533 0.24624,-2.93712 -0.18832,-4.02828 -1.94984,-4.89594 -1.17217,-0.57738 -1.88563,-0.69345 -4.26237,-0.69345 -4.09697,0 -5.88613,0.92158 -10.31013,5.31065 -1.80692,1.79265 -3.38114,3.15361 -3.49826,3.02436 -0.11713,-0.12926 -0.49717,-1.00973 -0.84453,-1.95662 -0.34737,-0.94688 -1.10654,-2.66476 -1.68705,-3.81751 -0.58051,-1.15275 -1.05548,-2.29207 -1.05548,-2.53184 0,-0.91691 3.142,-1.70024 7.47793,-1.86433 4.87813,-0.1846 6.65998,-0.53291 7.85039,-1.53458 1.70443,-1.43418 2.23466,-3.33199 1.76039,-6.30081 -0.36503,-2.28498 -1.21872,-4.1103 -2.16469,-4.62844 -0.37259,-0.20408 -1.63597,-0.35749 -2.82501,-0.34302 -3.749,0.0456 -6.70934,1.88625 -9.4405,5.86983 -1.23551,1.80207 -3.25851,5.78854 -3.25851,6.42114 0,0.9519 -0.66243,0.54017 -1.88698,-1.17284 -0.73758,-1.03179 -2.10708,-2.73306 -3.04333,-3.78059 -0.93626,-1.04753 -1.66119,-2.11796 -1.61098,-2.37872 0.15974,-0.82943 3.59271,-2.89895 6.54129,-3.94332 6.14655,-2.17707 7.52371,-3.30672 7.744,-6.35221 0.14555,-2.0122 -0.75083,-4.31343 -2.52223,-6.47519 -0.97707,-1.19239 -1.17422,-1.29594 -2.46685,-1.29572 -1.7921,3e-4 -4.59131,1.30868 -6.17308,2.88536 -2.11631,2.1095 -3.87794,6.91179 -4.27993,11.66724 -0.10447,1.23594 -0.30705,2.24716 -0.45017,2.24716 -0.14312,0 -1.03456,-0.63169 -1.98098,-1.40375 -3.76712,-3.07312 -9.91562,-6.53974 -13.49932,-7.61112 -0.70321,-0.21023 -1.40986,-0.54044 -1.57033,-0.7338 -0.2748,-0.33111 0.61159,-6.04377 1.04711,-6.74845 0.0954,-0.15434 1.48481,-1.04503 3.08761,-1.97929 1.60279,-0.93427 4.07502,-2.42348 5.49383,-3.30935 3.23258,-2.01833 7.07772,-3.82586 9.42034,-4.42834 7.73381,-1.98896 17.12894,-0.70509 25.5,3.48465 12.13279,6.0725 21.12707,16.7066 25.94854,30.67945 4.52566,13.11557 5.28613,28.93949 2.0876,43.43884 -3.8229,17.32972 -14.09598,32.43435 -29.20758,42.94427 -10.90277,7.58274 -23.93365,12.69763 -38.99286,15.3055 -3.1555,0.54646 -3.09937,0.54377 -3.33688,0.15949 z"
         id="path4155"
         inkscape:connector-curvature="0" />
      <path
         style="fill:#d54517"
         d="m 337.03571,643.92459 c -1.48145,-0.0855 -3.17813,-0.26149 -11.4,-1.18229 -11.08287,-1.2412 -24.01847,-4.36348 -33.45,-8.07384 -18.33062,-7.21128 -38.56484,-22.57138 -52.45684,-39.8208 -9.70204,-12.04682 -16.35187,-25.18896 -18.79628,-37.14733 -0.41945,-2.05204 -0.92785,-4.47349 -1.12976,-5.38099 -0.47427,-2.13156 -0.47424,-11.3264 4e-5,-13.5 0.19801,-0.9075 0.64606,-3.78472 0.99567,-6.39381 1.73764,-12.96782 6.16289,-25.7369 12.43128,-35.87049 13.08097,-21.14697 36.044,-34.24166 63.18649,-36.03215 10.94359,-0.72191 20.76527,1.08159 28.72827,5.27519 1.37987,0.72669 2.65367,1.32126 2.83066,1.32126 0.17699,0 0.65822,0.30375 1.06941,0.675 l 0.7476,0.675 -0.65936,-0.95487 c -1.01274,-1.46661 -3.16694,-3.23575 -6.01256,-4.93781 -3.05618,-1.828 -6.99265,-4.49929 -6.84614,-4.64579 0.1893,-0.18931 4.23184,1.04231 6.49647,1.97924 2.87182,1.18813 5.1924,2.49342 9.98846,5.61832 4.7393,3.08792 9.33056,5.57242 10.04506,5.43574 0.69245,-0.13246 0.92086,-1.84276 0.95525,-7.1527 0.0293,-4.52217 -0.3831,-8.55519 -1.03412,-10.11329 -0.23662,-0.56632 -1.34358,-2.12254 -2.45991,-3.45826 -2.59768,-3.10821 -5.46929,-6.93098 -5.31921,-7.08107 0.14231,-0.1423 3.88383,2.15002 7.37901,4.52089 4.7323,3.21005 6.42257,5.62668 7.12845,10.19175 0.88131,5.69963 0.95992,7.08438 0.51148,9.01017 -1.00861,4.33149 -4.44729,12.35231 -5.4627,12.74196 -0.68636,0.26338 -4.32659,-1.13284 -5.46977,-2.09794 l -1.09695,-0.92608 1.03385,1.10987 c 0.93626,1.0051 0.97387,1.10987 0.39841,1.10987 -1.94384,0 -7.51528,-2.49644 -15.23926,-6.8284 -7.83041,-4.39165 -15.62211,-6.0997 -25.793,-5.65418 -11.56409,0.50655 -21.84773,3.08608 -31.8,7.97667 -7.85107,3.85804 -13.42117,7.88246 -19.37241,13.99664 -11.26095,11.56926 -18.20449,27.0504 -20.83774,46.45927 -0.77657,5.7238 -0.92073,14.32756 -0.30663,18.3 1.46673,9.48787 4.78738,17.96603 10.81012,27.6 13.50043,21.59526 38.66729,42.11728 61.05977,49.79045 20.06545,6.87577 42.27605,9.13074 63.29689,6.42631 32.01607,-4.11901 58.57797,-18.4468 74.67699,-40.28162 9.49098,-12.87244 15.25975,-28.48462 16.80697,-45.48514 0.40174,-4.41424 0.40431,-14.74227 0.005,-19.2 -1.51458,-16.89857 -7.16247,-31.89434 -16.32701,-43.35 -2.10231,-2.62789 -7.18744,-7.7807 -9.76172,-9.89166 -5.32236,-4.36442 -13.00326,-8.58752 -19.35,-10.63898 -6.32144,-2.04327 -7.86912,-2.27004 -15.45,-2.2638 -6.30437,0.005 -6.95796,0.0582 -9.9,0.80221 -5.33417,1.34901 -8.88525,3.06141 -15.45335,7.4519 -2.87439,1.9214 -6.14665,3.76116 -6.14665,3.45582 0,-0.0795 0.43101,-0.65556 0.9578,-1.28005 0.93403,-1.10725 0.92413,-1.10348 -0.39879,0.15177 -1.52959,1.45134 -5.05167,2.9836 -7.53396,3.27759 -1.47931,0.1752 -1.50925,0.16312 -1.34614,-0.54281 0.0918,-0.39709 0.4736,-2.17806 0.84852,-3.95771 l 0.6817,-3.23571 1.86079,-0.88807 c 2.18456,-1.0426 4.40027,-2.63016 9.13008,-6.54172 4.13044,-3.41587 6.62204,-5.06642 9.47832,-6.27887 2.96282,-1.25768 4.38357,-2.22047 10.8958,-7.38365 0.36198,-0.287 0.36719,-0.22948 0.0356,0.39268 -0.72735,1.36459 -4.75839,5.1014 -7.26278,6.73267 -2.20231,1.4345 -5.30331,4.28685 -6.56478,6.03839 -0.38115,0.52921 -0.37904,0.55921 0.0179,0.25427 0.6676,-0.51292 5.61548,-2.39532 8.14353,-3.09817 6.84353,-1.90265 16.69034,-1.96876 25.12796,-0.16872 8.73813,1.86416 18.78965,7.06088 26.61543,13.7604 14.8447,12.70831 24.22619,30.6879 26.95137,51.65222 0.25738,1.98 0.60589,4.37158 0.77446,5.31463 0.48837,2.73221 0.68231,12.05261 0.32637,15.68537 -1.17296,11.97139 -2.7189,19.93895 -5.39062,27.7825 -10.91119,32.03275 -37.37651,54.82326 -74.70154,64.32893 -12.96345,3.30143 -30.13586,5.12284 -41.89697,4.44382 z m -0.15,-168.81852 c 0,-0.0623 -0.23625,-0.29854 -0.525,-0.525 -0.47582,-0.37316 -0.48643,-0.36255 -0.11327,0.11327 0.39191,0.49973 0.63827,0.65864 0.63827,0.41173 z m -0.9,-1.17788 c 0,-0.0501 -0.50625,-0.55638 -1.125,-1.125 l -1.125,-1.03385 1.03385,1.125 c 0.96228,1.04713 1.21615,1.26294 1.21615,1.03385 z m 27.63827,-0.43385 c 0.37316,-0.47582 0.36255,-0.48643 -0.11327,-0.11327 -0.49973,0.39191 -0.65864,0.63827 -0.41173,0.63827 0.0623,0 0.29854,-0.23625 0.525,-0.525 z m 1.01173,-1.275 c 0.29865,-0.33 0.47549,-0.6 0.39299,-0.6 -0.0825,0 -0.39434,0.27 -0.69299,0.6 -0.29865,0.33 -0.47549,0.6 -0.39299,0.6 0.0825,0 0.39434,-0.27 0.69299,-0.6 z m 1.38827,-1.725 c 0.37316,-0.47582 0.36255,-0.48643 -0.11327,-0.11327 -0.49973,0.39191 -0.65864,0.63827 -0.41173,0.63827 0.0623,0 0.29854,-0.23625 0.525,-0.525 z m -34.23827,-0.16887 c 0,-0.0516 -0.43875,-0.49038 -0.975,-0.975 l -0.975,-0.88113 0.88113,0.975 c 0.82133,0.90884 1.06887,1.11289 1.06887,0.88113 z m 35.13827,-1.03113 c 0.37316,-0.47582 0.36255,-0.48643 -0.11327,-0.11327 -0.49973,0.39191 -0.65864,0.63827 -0.41173,0.63827 0.0623,0 0.29854,-0.23625 0.525,-0.525 z m 1.46173,-1.725 c 0.38752,-0.4125 0.63709,-0.75 0.55459,-0.75 -0.0825,0 -0.46707,0.3375 -0.85459,0.75 -0.38753,0.4125 -0.63709,0.75 -0.55459,0.75 0.0825,0 0.46706,-0.3375 0.85459,-0.75 z m 1.83827,-2.175 c 0.37316,-0.47582 0.36255,-0.48643 -0.11327,-0.11327 -0.49972,0.39191 -0.65864,0.63827 -0.41173,0.63827 0.0623,0 0.29854,-0.23625 0.525,-0.525 z m -43.08827,155.41821 c -9.57705,-1.24386 -21.48046,-4.47764 -28.53599,-7.75234 -19.98601,-9.27614 -40.15012,-28.7822 -48.05928,-46.49087 -3.64464,-8.16037 -4.97119,-15.33089 -4.27349,-23.1 0.9863,-10.98299 3.15205,-19.50304 6.94877,-27.3365 7.24327,-14.94441 20.10294,-25.49109 36.33268,-29.79772 5.22241,-1.38579 8.58998,-1.84639 14.78731,-2.02253 9.12012,-0.25921 12.02327,0.43489 20.2849,4.84983 5.98498,3.19831 5.46954,2.47431 5.82627,8.1837 0.20584,3.29435 0.19182,3.41554 -0.41351,3.57383 -0.34461,0.0901 -2.01844,0.7311 -3.71961,1.42439 -3.93315,1.60292 -8.0547,4.03953 -11.41567,6.74881 -1.4507,1.16941 -2.67944,2.12619 -2.73054,2.12619 -0.0511,0 -0.17561,-1.07242 -0.27669,-2.38315 -0.23445,-3.04039 -1.20087,-6.82927 -2.2945,-8.99575 -1.56269,-3.09568 -5.25731,-5.71189 -8.07523,-5.71817 -1.11635,-0.002 -1.46432,0.15585 -2.30767,1.05006 -0.5462,0.57914 -1.42241,1.92506 -1.94714,2.99092 -0.83215,1.69034 -0.93728,2.16958 -0.82289,3.75104 0.22042,3.04734 1.40089,4.01963 7.69422,6.33737 4.10098,1.51032 7.13664,3.55477 6.64427,4.47476 -0.16469,0.30773 -0.43491,0.64323 -0.60049,0.74556 -0.40938,0.25301 -3.29815,3.89979 -4.33489,5.47236 -0.93079,1.41186 -1.33675,1.58188 -1.57763,0.66075 -0.30291,-1.15831 -2.15741,-4.78069 -3.33185,-6.50806 -2.74869,-4.0428 -5.69926,-5.77769 -9.82624,-5.77769 -1.97232,0 -2.34117,0.0888 -2.96646,0.71407 -0.96546,0.96547 -1.65865,3.45632 -1.65865,5.9601 0,2.14888 0.2405,2.89638 1.31249,4.07933 1.23129,1.35875 2.17162,1.60521 7.21668,1.89148 3.44286,0.19536 5.35584,0.44908 6.69257,0.88766 1.02946,0.33776 1.93916,0.7232 2.02157,0.85653 0.0824,0.13334 -0.37738,1.37157 -1.02174,2.75163 -0.64436,1.38006 -1.43495,3.29458 -1.75685,4.25449 -0.79548,2.37203 -1.05504,2.56481 -1.80954,1.34398 -0.92491,-1.49653 -4.74526,-5.0876 -6.88052,-6.46759 -1.03144,-0.6666 -2.5652,-1.37749 -3.40836,-1.57977 -2.19996,-0.52776 -5.29921,-0.23936 -6.89649,0.64175 -1.8352,1.01235 -2.13699,1.72806 -1.94136,4.60398 0.19589,2.87945 1.24824,5.31375 2.67126,6.17914 1.7882,1.08747 3.05299,1.04037 8.44045,-0.3143 4.30225,-1.08181 5.25061,-1.22764 6.80791,-1.0469 1.7661,0.20498 1.80497,0.22893 1.62657,1.00221 -0.53262,2.30864 -0.58239,2.63423 -0.92645,6.06027 -0.23049,2.29508 -0.52203,2.53068 -1.64819,1.33194 -0.38753,-0.4125 -0.87059,-0.75 -1.07348,-0.75 -0.20289,0 -1.49561,-0.53716 -2.87271,-1.19368 -5.07857,-2.4212 -8.51529,-2.69533 -12.03956,-0.96033 -3.46186,1.70427 -4.15087,3.21668 -2.90517,6.37705 1.37047,3.47691 3.46158,5.38033 5.90397,5.37403 1.41649,-0.004 3.73273,-1.06666 6.63761,-3.04626 2.78932,-1.90085 5.02866,-2.93906 6.53626,-3.03037 l 1.16308,-0.0704 0.20351,2.7 c 0.11192,1.485 0.37224,3.74468 0.57848,5.02151 0.20624,1.27684 0.30414,2.39236 0.21756,2.47894 -0.0866,0.0866 -0.65087,-0.0487 -1.25397,-0.30074 -3.6086,-1.50777 -10.24827,-1.9003 -13.15607,-0.77777 -3.12436,1.20612 -6.25137,4.74467 -5.79604,6.55883 0.53683,2.13891 3.82731,5.45909 6.01818,6.07249 2.65604,0.74365 4.31601,-0.34954 9.24867,-6.09079 1.64392,-1.91341 4.41012,-4.11247 5.17307,-4.11247 0.18777,0 0.77429,1.24875 1.30339,2.775 0.52911,1.52625 1.62603,4.04316 2.43761,5.59313 0.81159,1.54998 1.47561,2.846 1.47561,2.88006 0,0.0341 -1.45125,0.14239 -3.225,0.24074 -3.49077,0.19354 -7.13242,1.00634 -9.33271,2.083 -2.95253,1.44476 -5.44229,4.99121 -5.44229,7.75206 0,1.26584 0.1229,1.51723 1.2314,2.51869 2.49743,2.25627 5.87489,3.33136 7.97407,2.53823 1.92824,-0.72854 2.85804,-2.09124 5.05719,-7.41178 1.26635,-3.06375 3.44958,-6.36913 4.20686,-6.36913 0.21811,0 1.06463,0.8873 1.88115,1.97179 0.81652,1.08448 2.60934,3.13192 3.98405,4.54987 l 2.49945,2.57808 -1.94208,0.65604 c -3.80147,1.28413 -7.71294,3.63769 -9.69889,5.8359 -1.51969,1.68213 -2.3296,3.6367 -2.51737,6.07526 -0.20488,2.66086 0.20495,3.61693 1.88995,4.40898 4.75796,2.2365 9.15082,1.20422 10.31134,-2.42307 0.19307,-0.60343 0.52981,-3.10093 0.74832,-5.55 0.27416,-3.07283 0.60123,-4.98569 1.05534,-6.17215 0.36194,-0.94561 0.75389,-1.77852 0.87102,-1.85091 0.11712,-0.0724 1.49214,0.74882 3.05558,1.8249 3.29939,2.27091 7.53519,4.43176 11.39098,5.81102 l 2.71496,0.97116 -0.15646,3.03157 c -0.0861,1.66736 -0.30099,6.94656 -0.47765,11.73156 -0.51367,13.91338 -0.80267,19.58345 -1.01573,19.92818 -0.19534,0.31607 -0.9268,0.34708 -2.71348,0.11503 z m 31.19882,-0.39511 c -0.42509,-0.68782 -3.16213,-27.22081 -3.24435,-31.45089 l -0.0545,-2.8028 3.26921,-1.1555 c 1.79807,-0.63553 4.46397,-1.76617 5.92423,-2.51254 2.6701,-1.36475 6.9529,-4.10414 7.30359,-4.67156 0.4211,-0.68136 1.12218,-0.22522 1.72171,1.12019 0.47143,1.05792 0.7346,2.62284 1.02163,6.075 0.21677,2.60713 0.59885,5.20639 0.86968,5.91647 0.58917,1.54467 1.84954,2.65528 3.52549,3.10656 2.35211,0.63336 6.63081,-0.41163 7.91,-1.93187 0.71634,-0.85131 0.7641,-1.08863 0.64015,-3.18056 -0.28139,-4.74937 -2.68437,-7.67651 -8.857,-10.78897 -1.33938,-0.67537 -2.85002,-1.3109 -3.35697,-1.41229 -0.50695,-0.10138 -0.92172,-0.31273 -0.92172,-0.46964 0,-0.15692 1.15418,-1.53552 2.56485,-3.06356 1.41066,-1.52803 3.03425,-3.47527 3.60796,-4.32719 0.57372,-0.85192 1.21945,-1.54895 1.43495,-1.54895 0.48799,0 2.01008,1.86853 2.81526,3.45605 0.33306,0.65667 1.17451,2.56845 1.86989,4.24838 1.99506,4.81979 3.78695,6.39919 6.79273,5.9872 1.66259,-0.22788 3.99439,-1.40412 5.52513,-2.78705 1.06138,-0.95889 1.18891,-1.22384 1.1863,-2.46449 -0.006,-2.72583 -2.48137,-6.35261 -5.32731,-7.8045 -1.8997,-0.96915 -5.68531,-1.84318 -8.84476,-2.04208 -1.63809,-0.10313 -2.925,-0.31683 -2.925,-0.48572 0,-0.16587 0.6622,-1.66423 1.47157,-3.32969 0.80936,-1.66545 1.78093,-4.00685 2.15904,-5.2031 0.39752,-1.25762 0.8549,-2.175 1.0844,-2.175 1.14214,0 3.23873,1.89961 7.24338,6.5628 0.88462,1.03009 2.12975,2.2179 2.76696,2.63959 1.48853,0.98506 3.53312,1.05291 5.23813,0.17384 1.51294,-0.78005 3.53466,-2.94469 4.38504,-4.69502 0.58332,-1.20065 0.60603,-1.42609 0.23476,-2.33023 -0.59908,-1.45895 -2.90126,-3.79931 -4.56828,-4.64405 -2.25051,-1.14042 -4.30792,-1.40376 -7.92489,-1.01433 -1.72297,0.18551 -3.96449,0.59617 -4.98115,0.91259 -1.01665,0.31642 -1.93749,0.47845 -2.04631,0.36006 -0.10882,-0.11839 -0.0171,-1.29525 0.20386,-2.61525 0.22093,-1.32 0.41092,-3.345 0.42219,-4.5 0.0113,-1.155 0.14459,-2.29619 0.29628,-2.53597 0.46051,-0.72797 3.37712,0.39957 6.76502,2.61532 5.41745,3.54311 7.21417,4.0347 9.61153,2.62976 1.40596,-0.82396 2.82273,-2.83146 3.56016,-5.0446 0.70073,-2.103 0.61112,-3.04237 -0.40011,-4.1941 -2.2903,-2.6085 -6.85988,-3.592 -10.97393,-2.36189 -2.19312,0.65576 -6.2513,2.6075 -7.55672,3.63434 -0.91741,0.72164 -1.29093,0.55635 -1.29093,-0.57127 0,-0.74946 -0.54159,-4.19282 -1.07284,-6.82096 l -0.19191,-0.94937 1.72276,-0.21524 c 1.39932,-0.17483 2.32066,-0.0588 4.90738,0.61784 7.46951,1.95402 8.57895,1.99128 10.44731,0.35086 1.41217,-1.23989 2.18238,-3.02968 2.39496,-5.56533 0.24624,-2.93712 -0.18832,-4.02828 -1.94984,-4.89594 -1.17217,-0.57738 -1.88563,-0.69345 -4.26237,-0.69345 -4.09697,0 -5.88613,0.92158 -10.31013,5.31065 -1.80692,1.79265 -3.38114,3.15361 -3.49826,3.02436 -0.11713,-0.12926 -0.49717,-1.00973 -0.84453,-1.95662 -0.34737,-0.94688 -1.10654,-2.66476 -1.68705,-3.81751 -0.58051,-1.15275 -1.05548,-2.29207 -1.05548,-2.53184 0,-0.91691 3.142,-1.70024 7.47793,-1.86433 4.87813,-0.1846 6.65998,-0.53291 7.85039,-1.53458 1.70443,-1.43418 2.23466,-3.33199 1.76039,-6.30081 -0.36503,-2.28498 -1.21872,-4.1103 -2.16469,-4.62844 -0.37259,-0.20408 -1.63597,-0.35749 -2.82501,-0.34302 -3.749,0.0456 -6.70934,1.88625 -9.4405,5.86983 -1.23551,1.80207 -3.25851,5.78854 -3.25851,6.42114 0,0.9519 -0.66243,0.54017 -1.88698,-1.17284 -0.73758,-1.03179 -2.10708,-2.73306 -3.04333,-3.78059 -0.93626,-1.04753 -1.66119,-2.11796 -1.61098,-2.37872 0.15974,-0.82943 3.59271,-2.89895 6.54129,-3.94332 6.14655,-2.17707 7.52371,-3.30672 7.744,-6.35221 0.14555,-2.0122 -0.75083,-4.31343 -2.52223,-6.47519 -0.97707,-1.19239 -1.17422,-1.29594 -2.46685,-1.29572 -1.7921,3e-4 -4.59131,1.30868 -6.17308,2.88536 -2.11631,2.1095 -3.87794,6.91179 -4.27993,11.66724 -0.10447,1.23594 -0.30705,2.24716 -0.45017,2.24716 -0.14312,0 -1.03456,-0.63169 -1.98098,-1.40375 -3.76712,-3.07312 -9.91562,-6.53974 -13.49932,-7.61112 -0.70321,-0.21023 -1.40986,-0.54044 -1.57033,-0.7338 -0.2748,-0.33111 0.61159,-6.04377 1.04711,-6.74845 0.0954,-0.15434 1.48481,-1.04503 3.08761,-1.97929 1.60279,-0.93427 4.07502,-2.42348 5.49383,-3.30935 3.23258,-2.01833 7.07772,-3.82586 9.42034,-4.42834 7.73381,-1.98896 17.12894,-0.70509 25.5,3.48465 12.13279,6.0725 21.12707,16.7066 25.94854,30.67945 4.52566,13.11557 5.28613,28.93949 2.0876,43.43884 -3.8229,17.32972 -14.09598,32.43435 -29.20758,42.94427 -10.90277,7.58274 -23.93365,12.69763 -38.99286,15.3055 -3.1555,0.54646 -3.09937,0.54377 -3.33688,0.15949 z"
         id="path4153"
         inkscape:connector-curvature="0" />
      <path
         style="fill:#ca3203"
         d="m 337.78571,643.83177 c -1.97854,-0.11991 -2.52893,-0.22527 -1.8,-0.34457 0.83492,-0.13664 0.68129,-0.18188 -0.75,-0.22087 -11.34215,-0.30899 -28.3711,-3.63779 -39.94686,-7.80878 -24.41681,-8.79788 -50.01655,-30.1142 -64.13085,-53.40031 -5.82351,-9.60775 -10.02833,-21.22986 -10.86931,-30.04276 -0.14668,-1.53714 -0.27389,-2.00863 -0.40339,-1.49514 -0.1147,0.45479 -0.26408,-0.37025 -0.3795,-2.09611 -0.21953,-3.2825 0.0512,-7.95358 0.40809,-7.04108 0.16762,0.42859 0.23534,0.25843 0.25073,-0.63 0.0355,-2.0492 1.20506,-10.88929 1.86206,-14.07427 5.20207,-25.21864 17.84206,-43.74618 37.55757,-55.05136 8.1272,-4.66027 18.6847,-8.33437 28.55146,-9.93615 7.54258,-1.22447 19.40436,-1.12041 25.35,0.22238 4.55218,1.02809 9.64478,3.02729 15.71505,6.16923 0.51044,0.2642 0.5026,0.20477 -0.0811,-0.61495 -1.02775,-1.44336 -3.20889,-3.22131 -5.99933,-4.89037 -3.05618,-1.828 -6.99265,-4.49929 -6.84614,-4.64579 0.1893,-0.18931 4.23184,1.04231 6.49647,1.97924 2.87182,1.18813 5.1924,2.49342 9.98846,5.61832 4.7393,3.08792 9.33056,5.57242 10.04506,5.43574 0.69245,-0.13246 0.92086,-1.84276 0.95525,-7.1527 0.0293,-4.52217 -0.3831,-8.55519 -1.03412,-10.11329 -0.23662,-0.56632 -1.34358,-2.12254 -2.45991,-3.45826 -2.59768,-3.10821 -5.46929,-6.93098 -5.31921,-7.08107 0.14231,-0.1423 3.88383,2.15002 7.37901,4.52089 4.7323,3.21005 6.42257,5.62668 7.12845,10.19175 0.88131,5.69963 0.95992,7.08438 0.51148,9.01017 -1.00861,4.33149 -4.44729,12.35231 -5.4627,12.74196 -0.68879,0.26432 -4.32875,-1.1345 -5.46977,-2.102 -1.06687,-0.90462 -1.07639,-0.90678 -0.34695,-0.0789 0.6748,0.76584 0.68983,0.8342 0.15,0.68178 -0.33,-0.0932 -1.2075,-0.32529 -1.95,-0.51582 -1.80086,-0.4621 -7.20839,-3.06743 -11.1,-5.34794 -10.49999,-6.15307 -20.96404,-7.82105 -35.85,-5.71452 -14.44038,2.04348 -28.26762,8.13034 -38.57675,16.98181 -12.27991,10.54359 -20.56524,25.36556 -24.28325,43.44135 -1.86453,9.06476 -2.56328,19.83147 -1.67605,25.82545 3.04844,20.59475 17.7577,42.31991 41.02633,60.59473 11.84201,9.30052 24.17225,15.73744 37.52756,19.59101 18.3987,5.30879 38.66479,6.84003 57.98216,4.38092 22.07576,-2.81024 42.04732,-10.93796 58.5,-23.8074 3.08333,-2.41181 11.6923,-11.14518 14.22911,-14.43471 9.41985,-12.21494 14.94335,-24.88637 17.54909,-40.25925 1.00354,-5.9205 1.37198,-10.59525 1.37077,-17.39238 -10e-4,-9.13139 -0.87959,-16.59353 -2.90191,-24.66382 -3.35978,-13.40764 -10.5048,-26.11854 -19.51499,-34.7169 -8.32297,-7.94257 -17.46725,-13.13781 -27.63931,-15.70304 -4.60719,-1.16186 -7.74628,-1.45988 -13.39276,-1.27149 -8.9201,0.29762 -14.67469,2.19749 -22.3173,7.36802 -1.58548,1.07264 -3.82265,2.47069 -4.97147,3.10677 -2.00801,1.1118 -2.0604,1.12415 -1.35505,0.31931 0.40354,-0.46047 0.11778,-0.25797 -0.63503,0.44999 -1.5431,1.45118 -5.07402,2.98481 -7.5461,3.27759 -1.47931,0.1752 -1.50925,0.16313 -1.34614,-0.54281 0.0918,-0.39709 0.4736,-2.17806 0.84852,-3.95771 l 0.6817,-3.23571 1.86079,-0.88807 c 2.18456,-1.0426 4.40027,-2.63016 9.13008,-6.54172 4.13044,-3.41587 6.62204,-5.06642 9.47832,-6.27887 2.96282,-1.25768 4.38357,-2.22047 10.8958,-7.38365 0.36198,-0.287 0.36719,-0.22948 0.0356,0.39268 -0.72735,1.36459 -4.75839,5.1014 -7.26278,6.73267 -2.13522,1.3908 -5.19887,4.18743 -6.50693,5.93979 -0.32756,0.43882 -0.28789,0.48012 0.31787,0.33094 0.38068,-0.0937 1.80267,-0.62496 3.15997,-1.18046 12.3194,-5.04193 29.07941,-3.8883 42.55999,2.92949 6.84235,3.46052 11.31609,6.69038 17.17695,12.4011 7.82421,7.62376 13.63098,16.37182 17.85171,26.89413 3.24808,8.09748 5.48978,18.13757 6.08664,27.2608 0.1129,1.72557 0.29591,2.87899 0.4067,2.56314 0.34368,-0.97977 0.60232,6.0262 0.38096,10.31962 -0.12582,2.44053 -0.28005,3.65794 -0.38384,3.02984 -0.12114,-0.73313 -0.24305,-0.0994 -0.40396,2.1 -0.70192,9.59437 -3.13128,20.32515 -6.55406,28.95 -1.40767,3.54711 -5.01322,10.83514 -6.82718,13.8 -6.88212,11.24867 -16.92883,21.68425 -28.21173,29.30372 -13.50582,9.12063 -29.67701,15.49209 -47.4,18.67566 -4.01218,0.7207 -11.67079,1.64814 -15.52711,1.8803 -2.10374,0.12665 -3.16034,0.28387 -2.62289,0.39028 0.495,0.098 -0.9776,0.2731 -3.27243,0.38911 -4.33361,0.21908 -5.32208,0.21156 -10.07757,-0.0766 z m -0.9,-168.7257 c 0,-0.0623 -0.23625,-0.29854 -0.525,-0.525 -0.47582,-0.37316 -0.48643,-0.36255 -0.11327,0.11327 0.39191,0.49973 0.63827,0.65864 0.63827,0.41173 z m -0.9,-1.17788 c 0,-0.0501 -0.50625,-0.55638 -1.125,-1.125 l -1.125,-1.03385 1.03385,1.125 c 0.96228,1.04713 1.21615,1.26294 1.21615,1.03385 z m 27.63827,-0.43385 c 0.37316,-0.47582 0.36255,-0.48643 -0.11327,-0.11327 -0.49973,0.39191 -0.65864,0.63827 -0.41173,0.63827 0.0623,0 0.29854,-0.23625 0.525,-0.525 z m 1.01173,-1.275 c 0.29865,-0.33 0.47549,-0.6 0.39299,-0.6 -0.0825,0 -0.39434,0.27 -0.69299,0.6 -0.29865,0.33 -0.47549,0.6 -0.39299,0.6 0.0825,0 0.39434,-0.27 0.69299,-0.6 z m 1.38827,-1.725 c 0.37316,-0.47582 0.36255,-0.48643 -0.11327,-0.11327 -0.49973,0.39191 -0.65864,0.63827 -0.41173,0.63827 0.0623,0 0.29854,-0.23625 0.525,-0.525 z m -34.23827,-0.16887 c 0,-0.0516 -0.43875,-0.49038 -0.975,-0.975 l -0.975,-0.88113 0.88113,0.975 c 0.82133,0.90884 1.06887,1.11289 1.06887,0.88113 z m 35.13827,-1.03113 c 0.37316,-0.47582 0.36255,-0.48643 -0.11327,-0.11327 -0.49973,0.39191 -0.65864,0.63827 -0.41173,0.63827 0.0623,0 0.29854,-0.23625 0.525,-0.525 z m 1.46173,-1.725 c 0.38752,-0.4125 0.63709,-0.75 0.55459,-0.75 -0.0825,0 -0.46707,0.3375 -0.85459,0.75 -0.38753,0.4125 -0.63709,0.75 -0.55459,0.75 0.0825,0 0.46706,-0.3375 0.85459,-0.75 z m 1.83827,-2.175 c 0.37316,-0.47582 0.36255,-0.48643 -0.11327,-0.11327 -0.49972,0.39191 -0.65864,0.63827 -0.41173,0.63827 0.0623,0 0.29854,-0.23625 0.525,-0.525 z"
         id="path4151"
         inkscape:connector-curvature="0" />
      <path
         style="fill:#2a7031"
         d="m 341.68571,478.9781 c -1.63936,-0.60641 -2.24267,-1.04688 -3.78718,-2.76504 -1.01045,-1.12404 -2.39671,-2.58372 -3.08057,-3.24372 -0.68387,-0.66 -2.96214,-2.89411 -5.06282,-4.96468 -2.84234,-2.80159 -4.51015,-4.17518 -6.51943,-5.36931 -3.11395,-1.85064 -7.11292,-4.55309 -6.96152,-4.70448 0.1893,-0.18931 4.23184,1.04231 6.49647,1.97924 2.87182,1.18813 5.1924,2.49342 9.98846,5.61832 4.7393,3.08792 9.33056,5.57242 10.04506,5.43574 0.69245,-0.13246 0.92086,-1.84276 0.95525,-7.1527 0.0293,-4.52217 -0.3831,-8.55519 -1.03412,-10.11329 -0.23662,-0.56632 -1.34358,-2.12254 -2.45991,-3.45826 -2.59768,-3.10821 -5.46929,-6.93098 -5.31921,-7.08107 0.14231,-0.1423 3.88383,2.15002 7.37901,4.52089 4.73144,3.20948 6.4198,5.62285 7.12999,10.19175 0.93406,6.00914 0.97994,7.19714 0.36875,9.54785 -1.40528,5.40484 -4.47136,12.08931 -5.60289,12.21504 -0.32194,0.0358 -1.46284,-0.25955 -2.53534,-0.65628 z m 10.27891,0.11323 c 0.0918,-0.39709 0.4736,-2.17806 0.84852,-3.95771 l 0.6817,-3.23571 1.86079,-0.88807 c 2.18456,-1.0426 4.40027,-2.63016 9.13008,-6.54172 4.13044,-3.41587 6.62204,-5.06642 9.47832,-6.27887 2.96282,-1.25768 4.38357,-2.22047 10.8958,-7.38365 0.36198,-0.287 0.36719,-0.22948 0.0356,0.39268 -0.72748,1.36483 -4.75859,5.10153 -7.26278,6.73235 -2.61588,1.70355 -4.90295,3.88095 -7.34337,6.99125 -4.06381,5.1793 -7.57333,9.42543 -9.07365,10.97811 -1.36016,1.40763 -2.11423,1.90108 -4.04002,2.64375 -1.30225,0.5022 -3.04499,0.9933 -3.87276,1.09134 -1.47071,0.17418 -1.50122,0.16179 -1.3382,-0.54375 z"
         id="path4149"
         inkscape:connector-curvature="0" />
    </g>
  </g>
</svg>
